<svg xmlns="http://www.w3.org/2000/svg" xmlns:xlink="http://www.w3.org/1999/xlink" viewBox="0 0 97.03 97.03"><defs><style>.cls-1{clip-path:url(#clip-path);}.cls-2{fill:#f7f7f7;}</style><clipPath id="clip-path"/></defs><title>FA_RVB</title><g id="Layer_1" data-name="Layer 1"><g class="cls-1"><path class="cls-2" d="M28.08,61a7,7,0,0,1-7,7,7.27,7.27,0,0,1-2.26-.36v-39H36.32a7,7,0,0,1,7,7,7.23,7.23,0,0,1-.37,2.26H28.08Z"/><path class="cls-2" d="M31.31,49.31a5,5,0,1,1,5,5,5,5,0,0,1-5-5"/><path class="cls-2" d="M61.84,64.68a5,5,0,1,1,5-5,5,5,0,0,1-5,5"/><path class="cls-2" d="M82.46,67.23c-.33.12-.63.23-.84.33a6.81,6.81,0,0,1-9-3.28l-10.75-23-10.75,23a6.7,6.7,0,0,1-3.83,3.5,9.09,9.09,0,0,1-6-.22,6.47,6.47,0,0,1-1.58-1L55.28,32.81a7.24,7.24,0,0,1,13.12,0L84,66.53a8.32,8.32,0,0,1-1.58.7"/></g></g></svg>